<?xml version="1.0" encoding="UTF-8" standalone="no"?>
<!-- Created with Inkscape (http://www.inkscape.org/) -->

<svg
   width="508.88623"
   height="254.84882"
   viewBox="0 0 508.88623 254.84882"
   version="1.1"
   id="svg1"
   xmlns:inkscape="http://www.inkscape.org/namespaces/inkscape"
   xmlns:sodipodi="http://sodipodi.sourceforge.net/DTD/sodipodi-0.dtd"
   xmlns="http://www.w3.org/2000/svg"
   xmlns:svg="http://www.w3.org/2000/svg">
  <sodipodi:namedview
     id="namedview1"
     pagecolor="#ffffff"
     bordercolor="#111111"
     borderopacity="1"
     inkscape:showpageshadow="0"
     inkscape:pageopacity="0"
     inkscape:pagecheckerboard="1"
     inkscape:deskcolor="#d1d1d1"
     inkscape:document-units="px"
     inkscape:zoom="1.5878906"
     inkscape:cx="256"
     inkscape:cy="256"
     inkscape:window-width="2560"
     inkscape:window-height="1009"
     inkscape:window-x="-8"
     inkscape:window-y="-8"
     inkscape:window-maximized="1"
     inkscape:current-layer="layer1" />
  <defs
     id="defs1">
    <clipPath
       id="clipPath2837">
      <path
         clip-rule="nonzero"
         d="M 5,0 H 150 V 72.617188 H 5 Z m 0,0"
         id="path5406" />
    </clipPath>
  </defs>
  <g
     inkscape:label="Camada 1"
     inkscape:groupmode="layer"
     id="layer1"
     transform="translate(-1.5568732,-128.57559)">
    <g
       inkscape:label=""
       transform="matrix(2.6535302,0,0,2.6535302,1.5569234,128.57559)"
       id="g1">
      <g
         clip-path="url(#clipPath2837)"
         id="g5"
         transform="matrix(1.33333,0,0,1.33333,-7.574,-0.644501)">
        <g
           fill="#000000"
           fill-opacity="1"
           id="g4">
          <g
             id="use3"
             transform="translate(1.993,70.624001)">
            <path
               d="m 65.453125,-25.40625 c -2.59375,3.1875 -2.59375,6.578125 -2.59375,8.078125 v 10.15625 C 61.46875,-6.46875 57.984375,-4.875 54.09375,-3.78125 54.5,-5.375 54.5,-9.265625 54.5,-11.953125 c 0,-7.375 0,-10.46875 -3.296875,-13.453125 z M 39.359375,1.890625 c 8.65625,0 17.53125,-2.1875 24.40625,-5.671875 C 66.25,-5.078125 66.34375,-5.1875 66.34375,-7.96875 v -9.171875 c 0,-5.375 2.703125,-7.859375 6.28125,-8.171875 1.796875,-0.1875 1.890625,-1.484375 1.890625,-1.78125 0,-1.796875 -1.6875,-1.796875 -3.484375,-1.796875 H 44.4375 c -2,0 -3.59375,0 -3.59375,1.796875 0,0.890625 0.5,1.6875 1.890625,1.78125 8.28125,0.703125 8.28125,6.6875 8.28125,9.578125 v 7.5625 c 0,2.890625 0,4.390625 -2.890625,5.484375 -3.09375,1.09375 -7.671875,1.09375 -8.578125,1.09375 C 35.46875,-1.59375 28.5,-2.390625 24.40625,-12.75 c -2.296875,-5.875 -3.1875,-13.453125 -3.1875,-21.125 0,-20.015625 7.28125,-32.78125 17.828125,-32.78125 8.96875,0 20.125,9.265625 22.515625,17.046875 0.5,1.890625 0.796875,2.6875 2.09375,2.6875 1.703125,0 1.703125,-1.59375 1.703125,-3.296875 v -16.625 c 0,-1.703125 0,-3.296875 -1.703125,-3.296875 -0.09375,0 -1.59375,0 -1.78125,1.796875 -0.203125,1.6875 -1.203125,2.796875 -3.203125,2.796875 -3.484375,0 -6.96875,-1.5 -8.359375,-2.09375 -3.78125,-1.703125 -7.078125,-2.5 -11.5625,-2.5 -16.640625,0 -35.0625,10.46875 -35.0625,35.96875 0,24.109375 16.53125,36.0625 35.671875,36.0625 z M 61.875,-56.59375 c -1.609375,-2.1875 -3.5,-4.28125 -4.984375,-5.578125 0.59375,0.109375 1.296875,0.109375 1.78125,0.109375 1.109375,0 2.390625,-0.203125 3.203125,-0.703125 z M 25.40625,-4.1875 C 12.25,-9.65625 7.171875,-21.3125 7.171875,-34.078125 c 0,-18.328125 10.0625,-27.1875 19.421875,-30.375 v 0.09375 c -2.578125,2.59375 -8.859375,11.265625 -8.859375,30.484375 0,7.765625 0.796875,21.421875 7.671875,29.6875 z m 0,0"
               id="path5" />
          </g>
          <g
             id="use4"
             transform="translate(79.482414,70.624001)">
            <path
               d="m 26.703125,-31.28125 h 3.578125 l 14.953125,23.109375 c 0.984375,1.59375 3.375,5.484375 4.484375,6.96875 C 50.40625,0 50.703125,0 53,0 h 13.75 c 1.796875,0 3.28125,0 3.28125,-1.796875 0,-0.796875 -0.59375,-1.484375 -1.484375,-1.6875 -3.6875,-0.796875 -8.578125,-7.375 -10.96875,-10.5625 -0.6875,-1 -5.671875,-7.578125 -12.34375,-18.328125 8.859375,-1.59375 17.4375,-5.390625 17.4375,-17.234375 0,-13.859375 -14.65625,-18.640625 -26.40625,-18.640625 H 4.984375 c -1.796875,0 -3.390625,0 -3.390625,1.796875 0,1.703125 1.890625,1.703125 2.6875,1.703125 5.6875,0 6.171875,0.6875 6.171875,5.671875 v 49.90625 c 0,4.984375 -0.484375,5.6875 -6.171875,5.6875 -0.796875,0 -2.6875,0 -2.6875,1.6875 C 1.59375,0 3.1875,0 4.984375,0 H 32.28125 c 1.796875,0 3.28125,0 3.28125,-1.796875 0,-1.6875 -1.6875,-1.6875 -2.78125,-1.6875 -5.6875,0 -6.078125,-0.796875 -6.078125,-5.6875 z m 19.21875,-4.875 c 2.796875,-3.6875 3.09375,-8.96875 3.09375,-13.359375 0,-4.78125 -0.59375,-10.0625 -3.78125,-14.140625 4.078125,0.890625 13.9375,3.984375 13.9375,14.046875 0,6.46875 -2.984375,11.546875 -13.25,13.453125 z M 26.703125,-59.375 c 0,-2.09375 0,-5.375 6.171875,-5.375 8.46875,0 12.65625,3.484375 12.65625,15.234375 0,12.859375 -3.09375,14.75 -18.828125,14.75 z M 13.15625,-3.484375 C 13.953125,-5.28125 13.953125,-8.0625 13.953125,-8.96875 v -50.3125 c 0,-0.984375 0,-3.6875 -0.796875,-5.46875 H 24.5 c -1.28125,1.59375 -1.28125,3.578125 -1.28125,5.078125 V -8.96875 c 0,1 0,3.6875 0.796875,5.484375 z M 34.375,-31.28125 c 0.6875,-0.09375 1.09375,-0.203125 1.890625,-0.203125 1.5,0 3.6875,-0.203125 5.171875,-0.390625 1.5,2.390625 12.265625,20.125 20.53125,28.390625 h -9.671875 z m 0,0"
               id="path6" />
          </g>
        </g>
      </g>
    </g>
  </g>
</svg>
